<svg width="83" height="83" viewBox="0 0 83 83" fill="none" xmlns="http://www.w3.org/2000/svg">
<path d="M29.4663 67.9216L34.0953 69.582L33.5627 71.0663L30.7796 70.068L30.3699 71.2107L32.9871 72.1495L32.4546 73.6338L29.8374 72.695L28.9515 75.1659L27.1056 74.5038L29.4663 67.9216Z" fill="#07180F"/>
<path d="M35.4794 70.0268C36.3048 70.0083 37.1305 70.0488 37.9503 70.1478C38.8203 70.168 39.6629 70.4558 40.3635 70.9719C40.5808 71.1735 40.7447 71.4258 40.8407 71.7062C40.9367 71.9865 40.9618 72.2863 40.9138 72.5788C40.8591 72.9482 40.6937 73.2923 40.4393 73.5658C40.1849 73.8392 39.8536 74.0291 39.489 74.1102L39.4846 74.1514C39.7023 74.3041 39.8847 74.502 40.0192 74.7314C40.1537 74.9609 40.2372 75.2166 40.2641 75.4812C40.4212 76.2192 40.544 77.2666 40.6479 77.5497L38.6684 77.3274C38.4927 76.7919 38.3728 76.2396 38.3106 75.6794C38.1877 74.8201 37.9281 74.6238 37.2784 74.551L36.9276 74.5117L36.6376 77.0994L34.7094 76.8829L35.4794 70.0268ZM37.0821 73.1404L37.659 73.205C38.422 73.2908 38.9103 73.0325 38.9698 72.5066C39.0287 71.981 38.6671 71.6688 38.0073 71.5947C37.7599 71.559 37.5099 71.5449 37.26 71.5526L37.0821 73.1404Z" fill="#07180F"/>
<path d="M47.8048 74.1353L44.9825 74.4716L45.1237 75.656L48.2753 75.2805L48.4615 76.8462L43.3633 77.4535L42.5363 70.5113L47.4806 69.9224L47.6668 71.488L44.6696 71.8449L44.7957 72.9059L47.618 72.5696L47.8048 74.1353Z" fill="#07180F"/>
<path d="M54.8791 71.9291L52.203 72.8862L52.6045 74.0093L55.5928 72.9404L56.1241 74.425L51.2899 76.1537L48.9355 69.5715L53.6234 67.895L54.1541 69.3797L51.3127 70.396L51.6724 71.4019L54.3479 70.4448L54.8791 71.9291Z" fill="#07180F"/>
<path d="M19.4752 22.1934C19.3038 22.8513 19.0038 23.4687 18.5924 24.0099C16.953 26.3196 14.8918 26.4086 13.3606 25.3216C11.3811 23.9161 11.4204 21.6029 12.7476 19.7333C13.1218 19.1587 13.6153 18.6715 14.1946 18.3047L15.1951 19.5116C14.7556 19.7939 14.3753 20.1591 14.0755 20.5869C13.3967 21.5428 13.3125 22.7551 14.446 23.56C15.4275 24.2569 16.5869 24.0748 17.4216 22.8989C17.7132 22.4957 17.9338 22.0456 18.0738 21.5681L19.4752 22.1934Z" fill="#07180F"/>
<path d="M17.5154 14.7297L19.1416 16.6833L21.1673 14.997L19.5411 13.0431L21.0483 11.7883L25.5228 17.1636L24.0156 18.4184L22.2432 16.2891L20.2175 17.9754L21.9899 20.1047L20.4828 21.3594L16.0083 15.9845L17.5154 14.7297Z" fill="#07180F"/>
<path d="M29.9947 11.8599L27.4301 13.0852L27.9443 14.1617L30.8084 12.7933L31.4885 14.2159L26.855 16.4297L23.8408 10.1211L28.3337 7.97437L29.0131 9.39694L26.2896 10.6985L26.75 11.6627L29.3152 10.437L29.9947 11.8599Z" fill="#07180F"/>
<path d="M38.4924 10.0308C38.3278 9.17463 38.1587 8.22509 37.9586 7.02795L37.9276 7.03301C37.8465 8.05633 37.7002 9.19555 37.5799 10.1096L37.2506 12.7309L35.7062 12.9896L34.6759 10.6061C34.3295 9.79109 33.9249 8.75448 33.569 7.76219L33.5487 7.76567C33.6843 8.82635 33.8369 9.92626 33.9496 10.7906L34.277 13.3758L32.4558 13.6804L31.6908 6.71987L34.4536 6.25761L35.2046 7.91987C35.5225 8.62402 35.8961 9.53938 36.1957 10.3835L36.2362 10.3765C36.3159 9.4694 36.4002 8.40332 36.5009 7.68208L36.7554 5.8726L39.4461 5.42236L40.9171 12.2648L38.9933 12.5865L38.4924 10.0308Z" fill="#07180F"/>
<path d="M44.8085 5.72126L44.3615 12.697L42.4054 12.5716L42.8525 5.59619L44.8085 5.72126Z" fill="#07180F"/>
<path d="M51.7711 14.0621C51.0952 14.1356 50.4114 14.0744 49.7593 13.882C47.0173 13.1689 46.2024 11.2733 46.6748 9.45561C47.2865 7.10567 49.4636 6.32076 51.6824 6.89827C52.3525 7.04403 52.9834 7.33235 53.5321 7.74364L52.7589 9.10828C52.3392 8.7969 51.8624 8.5709 51.3557 8.44306C50.2209 8.14765 49.0576 8.4991 48.7075 9.84505C48.4048 11.0099 48.9861 12.0297 50.3824 12.3929C50.8631 12.522 51.3622 12.5684 51.8585 12.53L51.7711 14.0621Z" fill="#07180F"/>
<path d="M55.5934 14.2753L54.365 15.5348L52.5691 14.5147L57.9459 9.52441L60.2737 10.8469L58.8679 18.0921L56.9726 17.016L57.3621 15.2796L55.5934 14.2753ZM57.8079 13.8859L58.0928 12.6276C58.1796 12.2233 58.3043 11.7091 58.3961 11.2959L58.3778 11.2855C58.0789 11.5812 57.7376 11.9719 57.4381 12.2676L56.5446 13.1684L57.8079 13.8859Z" fill="#07180F"/>
<path d="M64.5301 13.8418L65.953 15.1903L62.272 19.0755L64.463 21.1516L63.3365 22.3411L59.7219 18.9169L64.5301 13.8418Z" fill="#07180F"/>
<path d="M65.859 22.3887C65.9534 23.0808 66.1985 23.7438 66.5771 24.3308C66.9419 24.8729 67.299 25.0328 67.5916 24.8359C67.8417 24.668 67.8259 24.2913 67.5492 23.4522C67.1585 22.2773 67.1167 21.1178 68.1241 20.4405C69.1741 19.7345 70.5856 20.1603 71.5987 21.6668C72.0237 22.2632 72.3184 22.9422 72.4638 23.6599L70.9408 24.1466C70.8325 23.564 70.6081 23.0091 70.281 22.515C69.9574 22.0328 69.6167 21.8618 69.3672 22.0296C69.0576 22.238 69.2032 22.6774 69.4717 23.5972C69.8681 24.9679 69.6845 25.8661 68.8068 26.4566C67.8341 27.1108 66.4233 26.9464 65.179 25.0958C64.7402 24.448 64.4433 23.7149 64.3076 22.9444L65.859 22.3887Z" fill="#07180F"/>
<path d="M45.5205 37.3151V25.4414H37.4794V37.3168C37.4773 37.616 37.3897 37.9084 37.2271 38.1595C37.0644 38.4106 36.8333 38.61 36.5611 38.7342C34.1581 39.8578 32.21 41.7671 31.0383 44.1471C29.8667 46.5271 29.5416 49.2354 30.1167 51.8251C30.6918 54.4148 32.1326 56.7309 34.2015 58.3913C36.2704 60.0517 38.8436 60.957 41.4963 60.9578C44.149 60.9587 46.7228 60.055 48.7927 58.3959C50.8626 56.7368 52.305 54.4215 52.8817 51.8323C53.4584 49.243 53.135 46.5344 51.9648 44.1537C50.7947 41.773 48.8478 39.8624 46.4454 38.7373C46.1718 38.613 45.9394 38.4131 45.7755 38.1611C45.6117 37.9092 45.5232 37.6157 45.5205 37.3151Z" stroke="#07180F" stroke-width="2.075" stroke-linecap="round" stroke-linejoin="round"/>
<path d="M45.8253 22.0469H37.1758C36.2386 22.0469 35.4789 22.8066 35.4789 23.7438V23.7445C35.4789 24.6817 36.2386 25.4414 37.1758 25.4414H45.8253C46.7626 25.4414 47.5223 24.6817 47.5223 23.7445V23.7438C47.5223 22.8066 46.7626 22.0469 45.8253 22.0469Z" stroke="#07180F" stroke-width="2.075" stroke-linecap="round" stroke-linejoin="round"/>
<path d="M30.3796 45.7798H52.6175C53.169 47.5261 53.3013 49.3777 53.0038 51.1846C52.7063 52.9916 51.9873 54.703 50.9051 56.1803C49.8229 57.6576 48.4079 58.8592 46.7748 59.6878C45.1416 60.5163 43.3363 60.9485 41.505 60.9492C39.6737 60.95 37.868 60.5194 36.2342 59.6923C34.6004 58.8651 33.1843 57.6647 32.1009 56.1884C31.0174 54.712 30.297 53.0011 29.9979 51.1944C29.6989 49.3877 29.8296 47.536 30.3796 45.7893" stroke="#07180F" stroke-width="2.075" stroke-linecap="round" stroke-linejoin="round"/>
<path d="M41.5004 56.9115C42.4523 56.9115 43.2239 56.1398 43.2239 55.1879C43.2239 54.236 42.4523 53.4644 41.5004 53.4644C40.5485 53.4644 39.7769 54.236 39.7769 55.1879C39.7769 56.1398 40.5485 56.9115 41.5004 56.9115Z" stroke="#07180F" stroke-width="2.075" stroke-linecap="round" stroke-linejoin="round"/>
<path d="M45.8455 52.2108C46.7974 52.2108 47.569 51.4391 47.569 50.4872C47.569 49.5353 46.7974 48.7637 45.8455 48.7637C44.8936 48.7637 44.1219 49.5353 44.1219 50.4872C44.1219 51.4391 44.8936 52.2108 45.8455 52.2108Z" stroke="#07180F" stroke-width="2.075" stroke-linecap="round" stroke-linejoin="round"/>
<path d="M37.1547 52.2108C38.1066 52.2108 38.8782 51.4391 38.8782 50.4872C38.8782 49.5353 38.1066 48.7637 37.1547 48.7637C36.2028 48.7637 35.4312 49.5353 35.4312 50.4872C35.4312 51.4391 36.2028 52.2108 37.1547 52.2108Z" stroke="#07180F" stroke-width="2.075" stroke-linecap="round" stroke-linejoin="round"/>
<path d="M60.6556 67.6537C66.5457 63.3406 70.8077 57.1659 72.7516 50.129C74.6955 43.0922 74.2075 35.6053 71.3666 28.8804" stroke="#07180F" stroke-width="2.075" stroke-linecap="round" stroke-linejoin="round"/>
<path d="M11.6336 28.8804C8.79269 35.6053 8.30469 43.0922 10.2486 50.1291C12.1925 57.1659 16.4544 63.3406 22.3445 67.6537" stroke="#07180F" stroke-width="2.075" stroke-linecap="round" stroke-linejoin="round"/>
</svg>
