<svg width="84" height="84" viewBox="0 0 84 84" fill="none" xmlns="http://www.w3.org/2000/svg">
<path d="M35.5802 25.4783L29.9109 35.2984H41.2502L35.5802 25.4783Z" stroke="#07180F" stroke-width="2.1" stroke-linecap="round" stroke-linejoin="round"/>
<path d="M35.5803 25.4783H48.4153H35.5803Z" fill="#07180F"/>
<path d="M35.5803 25.4783H48.4153" stroke="#07180F" stroke-width="2.1" stroke-linecap="round" stroke-linejoin="round"/>
<path d="M41.2504 35.2984H54.0899L48.4206 25.4783" stroke="#07180F" stroke-width="2.1" stroke-linecap="round" stroke-linejoin="round"/>
<path d="M29.9109 35.2983H54.0898V61.9336H29.9109V35.2983Z" stroke="#07180F" stroke-width="2.1" stroke-linecap="round" stroke-linejoin="round"/>
<path d="M41.2504 35.2977V61.933V35.2977Z" fill="#07180F"/>
<path d="M41.2504 35.2977V61.933" stroke="#07180F" stroke-width="2.1" stroke-linecap="round" stroke-linejoin="round"/>
<path d="M41.2504 43.7443H54.0899V53.481H41.2504V43.7443Z" stroke="#07180F" stroke-width="2.1" stroke-linecap="round" stroke-linejoin="round"/>
<path d="M35.5803 22.5586H48.4153V25.4783H35.5803V22.5586Z" stroke="#07180F" stroke-width="2.1" stroke-linecap="round" stroke-linejoin="round"/>
<path d="M29.8215 68.74L34.5063 70.4203L33.9673 71.9225L31.1507 70.9122L30.7361 72.0687L33.3848 73.0188L32.8458 74.5209L30.1971 73.5709L29.3005 76.0715L27.4324 75.4015L29.8215 68.74Z" fill="#07180F"/>
<path d="M35.9067 70.8705C36.7421 70.8518 37.5778 70.8927 38.4074 70.9929C39.2879 71.0134 40.1407 71.3046 40.8498 71.827C41.0696 72.031 41.2355 72.2863 41.3327 72.5701C41.4298 72.8538 41.4553 73.1572 41.4067 73.4532C41.3513 73.8271 41.1839 74.1754 40.9264 74.4521C40.669 74.7288 40.3336 74.921 39.9647 75.0031L39.9602 75.0448C40.1806 75.1994 40.3651 75.3996 40.5012 75.6318C40.6373 75.864 40.7219 76.1228 40.7491 76.3906C40.9081 77.1375 41.0324 78.1975 41.1375 78.484L39.1341 78.2591C38.9563 77.7171 38.835 77.1581 38.7721 76.5912C38.6477 75.7215 38.385 75.5229 37.7274 75.4492L37.3724 75.4094L37.0789 78.0283L35.1274 77.8092L35.9067 70.8705ZM37.5288 74.0216L38.1126 74.087C38.8848 74.1739 39.379 73.9124 39.4392 73.3801C39.4988 72.8482 39.1329 72.5323 38.4651 72.4573C38.2147 72.4211 37.9617 72.4068 37.7089 72.4147L37.5288 74.0216Z" fill="#07180F"/>
<path d="M48.381 75.0285L45.5246 75.3688L45.6675 76.5675L48.8571 76.1875L49.0456 77.772L43.8859 78.3866L43.049 71.3608L48.0529 70.7648L48.2413 72.3493L45.208 72.7105L45.3356 73.7842L48.1919 73.4439L48.381 75.0285Z" fill="#07180F"/>
<path d="M55.5402 72.7957L52.8319 73.7644L53.2382 74.9009L56.2625 73.8191L56.8001 75.3217L51.9077 77.0712L49.525 70.4097L54.2694 68.713L54.8064 70.2155L51.9308 71.2441L52.2949 72.2621L55.0025 71.2935L55.5402 72.7957Z" fill="#07180F"/>
<path d="M23.608 10.5664C24.3077 10.1163 25.0389 9.71729 25.796 9.37242C26.7641 8.82806 27.8728 8.58527 28.9798 8.67515C29.5076 8.7386 30.0089 8.94178 30.432 9.26371C30.855 9.58564 31.1844 10.0146 31.3863 10.5064C31.6482 10.9917 31.7886 11.5332 31.7955 12.0847C31.8024 12.6361 31.6757 13.1809 31.426 13.6726C30.7281 14.7647 29.7024 15.6079 28.496 16.0814C27.8649 16.3891 27.211 16.6475 26.54 16.8542L23.608 10.5664ZM27.7391 14.7317C27.8856 14.6834 28.0285 14.6245 28.1665 14.5554C29.4886 13.9623 30.1609 12.8959 29.5085 11.4975C28.9144 10.2229 27.7621 10.1117 26.6015 10.6529C26.3893 10.7468 26.1865 10.8608 25.9959 10.9932L27.7391 14.7317Z" fill="#07180F"/>
<path d="M35.7094 11.6206L35.5466 13.3929L33.4862 13.7355L34.5308 6.39012L37.2019 5.94568L40.7133 12.5335L38.5388 12.8949L37.7383 11.2832L35.7094 11.6206ZM37.2007 9.90401L36.6232 8.7341C36.4335 8.36111 36.2041 7.8779 36.0125 7.49498L35.992 7.49818C35.9452 7.92116 35.926 8.44571 35.8792 8.86836L35.751 10.1453L37.2007 9.90401Z" fill="#07180F"/>
<path d="M44.2815 5.70665L44.0316 12.7799L42.0481 12.7097L42.298 5.63647L44.2815 5.70665Z" fill="#07180F"/>
<path d="M47.3225 6.02234C48.1553 6.09575 48.9817 6.22832 49.7957 6.41904C50.6686 6.53653 51.4842 6.91994 52.1316 7.51716C52.3278 7.7442 52.4646 8.01629 52.5299 8.30913C52.5952 8.60196 52.587 8.90642 52.5059 9.19528C52.4097 9.56087 52.2049 9.88869 51.9185 10.1354C51.6321 10.3822 51.2776 10.5363 50.9018 10.5773L50.8928 10.618C51.0951 10.7959 51.2566 11.0152 51.3664 11.2611C51.4763 11.507 51.5318 11.7737 51.5292 12.043C51.6055 12.8031 51.6119 13.8704 51.6849 14.1668L49.7181 13.7227C49.6011 13.1643 49.542 12.5953 49.5419 12.0247C49.5137 11.1464 49.2746 10.9202 48.6293 10.7744L48.2806 10.6959L47.7 13.2671L45.7844 12.8345L47.3225 6.02234ZM48.5883 9.33339L49.1618 9.46284C49.92 9.63396 50.4404 9.42856 50.5583 8.90625C50.6762 8.38362 50.3468 8.02954 49.6912 7.8815C49.4465 7.8176 49.1967 7.77556 48.9446 7.75589L48.5883 9.33339Z" fill="#07180F"/>
<path d="M54.1494 15.335L55.4696 12.6959L55.1171 7.9054L57.1929 8.94328L57.0801 10.648C57.0474 11.2071 57.0333 11.5404 56.9955 12.0146L57.0147 12.0243C57.348 11.733 57.6486 11.484 58.0427 11.1411L59.3437 10.0187L61.3912 11.0428L57.2775 13.5175L55.9246 16.2226L54.1494 15.335Z" fill="#07180F"/>
<path d="M61.3862 68.4687C65.1801 65.6919 68.3326 62.1318 70.63 58.0299C72.9274 53.928 74.3161 49.38 74.7018 44.6944C75.0876 40.0087 74.4615 35.2949 72.8658 30.8725C71.2702 26.45 68.7424 22.4223 65.4538 19.0624" stroke="#07180F" stroke-width="2.1" stroke-linecap="round" stroke-linejoin="round"/>
<path d="M18.5461 19.0624C15.2575 22.4223 12.7297 26.45 11.1341 30.8725C9.53847 35.2949 8.91233 40.0087 9.2981 44.6944C9.68387 49.38 11.0725 53.928 13.37 58.0299C15.6674 62.1318 18.8199 65.6919 22.6137 68.4687" stroke="#07180F" stroke-width="2.1" stroke-linecap="round" stroke-linejoin="round"/>
</svg>
