<svg width="86" height="86" viewBox="0 0 86 86" fill="none" xmlns="http://www.w3.org/2000/svg">
<path d="M26.5999 79.0787L28.6252 79.8364L29.5436 77.3811L32.6947 78.5593L33.2803 76.9941L30.1293 75.8159L30.715 74.2507L34.2951 75.5897L34.8842 74.0142L29.2779 71.9175L26.5999 79.0787Z" fill="#07180F"/>
<path d="M41.1225 75.2312C40.6435 74.9465 40.057 74.7616 39.363 74.6782L35.9032 74.262L34.9899 81.8532L37.1373 82.1112L37.3798 80.0945L38.5408 80.2338L39.6743 82.4165L41.9731 82.6934L40.6203 80.1048C41.1096 79.9423 41.5095 79.686 41.8114 79.3291C42.1322 78.9498 42.3274 78.4674 42.3979 77.8817C42.4667 77.3107 42.391 76.7972 42.1709 76.3414C41.9507 75.8856 41.6007 75.5158 41.1217 75.2303L41.1225 75.2312ZM40.002 76.774C40.2023 77.0002 40.2815 77.2831 40.241 77.6228C40.198 77.9772 40.0535 78.2386 39.8059 78.4063C39.5582 78.5749 39.2107 78.6316 38.7618 78.5774L37.5793 78.4355L37.8468 76.2124L39.0293 76.3543C39.4773 76.4085 39.8016 76.5478 40.002 76.774Z" fill="#07180F"/>
<path d="M46.7927 80.6655L46.6259 79.2775L49.9988 78.8733L49.8079 77.2788L46.435 77.683L46.2828 76.4145L50.1115 75.9553L49.9111 74.2852L43.9677 74.9981L44.8775 82.5893L50.962 81.86L50.7617 80.1899L46.7927 80.6655Z" fill="#07180F"/>
<path d="M55.2964 78.8112L54.8157 77.498L58.0054 76.3301L57.4533 74.8225L54.2636 75.9904L53.8241 74.7907L57.4447 73.4646L56.8668 71.8848L51.2458 73.9436L53.8749 81.1229L59.6291 79.0159L59.0503 77.4369L55.2964 78.8112Z" fill="#07180F"/>
<path d="M22.1842 13.2293C22.4559 13.3824 22.7432 13.4667 23.0485 13.4822C23.3529 13.4976 23.666 13.4701 23.9876 13.3996C24.3092 13.3291 24.6163 13.2439 24.9078 13.145C25.1993 13.0453 25.4745 12.9601 25.7325 12.8888C25.9905 12.8174 26.2133 12.7838 26.4016 12.7873C26.5891 12.7907 26.7258 12.8655 26.811 13.01C26.8772 13.1227 26.8987 13.2414 26.8738 13.3652C26.8497 13.489 26.7731 13.6189 26.645 13.7531C26.5169 13.8872 26.3208 14.0317 26.0568 14.1865C25.6732 14.411 25.2527 14.5752 24.7951 14.6801C24.3368 14.7842 23.905 14.8289 23.4991 14.8134L23.6995 16.5575C24.1286 16.5842 24.6326 16.5188 25.2114 16.3606C25.7902 16.2023 26.3526 15.9633 26.8987 15.6425C27.5514 15.2589 28.0382 14.8427 28.3573 14.3946C28.6763 13.9466 28.8492 13.4959 28.8767 13.0453C28.9034 12.5946 28.8045 12.1784 28.58 11.7948C28.377 11.4491 28.1397 11.2023 27.8671 11.0544C27.5944 10.9065 27.3046 10.8265 26.9993 10.8162C26.6932 10.8058 26.3836 10.8351 26.0697 10.9056C25.7566 10.9753 25.4496 11.0604 25.1495 11.161C24.8493 11.2608 24.5733 11.3485 24.3221 11.4242C24.071 11.4999 23.8517 11.536 23.6634 11.5317C23.475 11.5282 23.3374 11.4508 23.2488 11.3003C23.1904 11.1997 23.1689 11.0853 23.1869 10.9563C23.2041 10.8282 23.2747 10.6897 23.3985 10.541C23.5223 10.3922 23.7133 10.2425 23.9704 10.0912C24.2594 9.92175 24.5819 9.78759 24.937 9.68869C25.2922 9.58979 25.6792 9.53647 26.0963 9.52787L25.8547 7.82077C25.4204 7.81389 24.9654 7.88441 24.4907 8.03233C24.016 8.18025 23.5619 8.38063 23.1285 8.63519C22.4817 9.01445 21.9984 9.42897 21.6794 9.87789C21.3603 10.3268 21.1874 10.774 21.1625 11.2195C21.1367 11.665 21.2382 12.0829 21.4669 12.4717C21.6733 12.8234 21.9124 13.0762 22.1833 13.2293H22.1842Z" fill="#07180F"/>
<path d="M31.3189 12.3686C32.0963 12.7865 33.0268 12.8381 34.1113 12.5225C35.188 12.2095 35.9457 11.666 36.3843 10.8937C36.8229 10.1214 36.8848 9.19347 36.5692 8.10987L35.3815 4.03003L33.3261 4.62859L34.4957 8.64565C34.6772 9.26829 34.6866 9.75075 34.525 10.093C34.3633 10.4362 34.0657 10.6701 33.6323 10.7965C33.1988 10.9229 32.8196 10.8851 32.4962 10.6838C32.172 10.4826 31.9192 10.0707 31.7386 9.44803L30.569 5.43097L28.4929 6.03555L29.6806 10.1154C29.9962 11.199 30.5432 11.9498 31.3206 12.3686H31.3189Z" fill="#07180F"/>
<path d="M39.784 10.203C40.1685 10.5496 40.6174 10.8153 41.1308 10.9985C41.6442 11.1826 42.2058 11.2694 42.8181 11.2582C43.3711 11.2488 43.9318 11.155 44.5011 10.9779C45.0696 10.8007 45.5736 10.5513 46.0122 10.2305L45.9571 7.06317L44.035 7.09671L44.0711 9.19769C43.9989 9.23209 43.9267 9.26391 43.8544 9.28971C43.55 9.40065 43.2378 9.45913 42.9179 9.46429C42.5971 9.46945 42.3038 9.42215 42.0355 9.32153C41.7681 9.22091 41.5376 9.07557 41.3449 8.88551C41.1523 8.69631 41.0009 8.46755 40.8909 8.20009C40.7808 7.93263 40.7223 7.63851 40.7171 7.31859C40.7111 6.99093 40.7593 6.69165 40.8599 6.41989C40.9605 6.14899 41.1041 5.91507 41.2899 5.71899C41.4757 5.52291 41.7027 5.37155 41.9702 5.26491C42.2376 5.15827 42.5352 5.10237 42.8628 5.09635C43.2344 5.08947 43.5723 5.15311 43.8768 5.28641C44.1812 5.41971 44.4667 5.62955 44.7342 5.91593L46.0887 4.64657C45.7094 4.20195 45.2339 3.86397 44.662 3.63349C44.0901 3.40301 43.4468 3.29379 42.7338 3.30669C42.1078 3.31787 41.5376 3.42365 41.0242 3.62575C40.5107 3.82785 40.0661 4.10821 39.6894 4.46855C39.3136 4.82803 39.0238 5.25373 38.8217 5.74565C38.6187 6.23757 38.5224 6.77421 38.5327 7.35643C38.5431 7.93865 38.6574 8.47185 38.8776 8.95603C39.0969 9.44021 39.3996 9.85559 39.784 10.2022V10.203Z" fill="#07180F"/>
<path d="M49.6747 10.2375L52.8085 11.0347L53.0218 12.6334L55.2028 13.1881L53.8061 4.94331L51.7421 4.41785L46.5864 10.996L48.7244 11.5404L49.6755 10.2383L49.6747 10.2375ZM52.2349 6.73211L52.5832 9.34307L50.6817 8.85975L52.2358 6.73211H52.2349Z" fill="#07180F"/>
<path d="M58.6419 12.8708L59.661 13.4444L59.8734 15.8945L61.8918 17.0297L61.6321 14.1212C62.1464 14.1582 62.6142 14.0748 63.0296 13.8598C63.4708 13.6319 63.8363 13.2612 64.1252 12.7469C64.4073 12.2456 64.5337 11.7425 64.5045 11.2368C64.4752 10.732 64.2938 10.2555 63.9601 9.80917C63.6264 9.36283 63.1552 8.96809 62.5454 8.62495L59.5088 6.91699L55.76 13.5811L57.6451 14.6415L58.641 12.8708H58.6419ZM60.5588 9.46259L61.5968 10.0465C61.9898 10.2676 62.2358 10.5213 62.3347 10.8068C62.4328 11.0923 62.3983 11.3838 62.2306 11.6823C62.0561 11.9936 61.8213 12.1785 61.5289 12.2395C61.2356 12.2997 60.8925 12.2198 60.4986 11.9987L59.4606 11.4148L60.5588 9.46345V9.46259Z" fill="#07180F"/>
<path d="M68.6007 16.9076C68.2696 16.5826 67.7381 16.5877 67.4122 16.9188C67.0871 17.2499 67.0922 17.7823 67.4233 18.1073C74.1597 24.719 77.8698 33.5572 77.8698 42.9949C77.8698 54.6014 72.1189 65.4133 62.4852 71.9167C62.1008 72.1764 61.9993 72.6984 62.259 73.0837C62.4216 73.3245 62.6865 73.4535 62.9565 73.4535C63.1182 73.4535 63.2816 73.407 63.4261 73.3099C73.5225 66.4935 79.5502 55.1613 79.5502 42.9957C79.5502 33.1031 75.6613 23.8384 68.6007 16.9085V16.9076Z" fill="#07180F"/>
<path d="M23.5149 71.9167C13.8821 65.4133 8.13039 54.6023 8.13039 42.9949C8.13039 33.5572 11.8404 24.719 18.5768 18.1073C18.9079 17.7823 18.9131 17.2499 18.588 16.9188C18.2629 16.5877 17.7306 16.5826 17.3995 16.9076C10.338 23.8375 6.44995 33.1023 6.44995 42.9949C6.44995 55.1604 12.4777 66.4935 22.5741 73.309C22.7186 73.4062 22.882 73.4526 23.0437 73.4526C23.3137 73.4526 23.5786 73.3228 23.7411 73.0828C24.0008 72.6984 23.8994 72.1755 23.5149 71.9158V71.9167Z" fill="#07180F"/>
<path d="M68.6576 38.9761C68.6662 38.9571 68.6731 38.9365 68.6808 38.9167C68.692 38.8849 68.7032 38.8539 68.7101 38.8213C68.7144 38.8023 68.7178 38.7826 68.7204 38.7628C68.7255 38.7275 68.7298 38.6931 68.7307 38.6587C68.7307 38.6484 68.7333 38.6389 68.7333 38.6295C68.7333 38.6183 68.7307 38.6088 68.7298 38.5977C68.7281 38.565 68.7255 38.5332 68.7204 38.5013C68.7169 38.4781 68.7126 38.4549 68.7075 38.4317C68.7023 38.4102 68.6954 38.3887 68.6886 38.368C68.6877 38.3646 68.686 38.3612 68.6843 38.3577C68.6843 38.3569 68.6834 38.3551 68.6825 38.3543C68.6739 38.3293 68.6653 38.3044 68.6542 38.2803C68.6438 38.258 68.6309 38.2373 68.6189 38.2158C68.6051 38.1917 68.5922 38.1668 68.5759 38.1444C68.5725 38.1393 68.5699 38.1341 68.5664 38.1298L60.3233 25.6959C60.1582 25.4474 59.877 25.3038 59.5743 25.3218L44.6404 26.1896C44.5673 26.1939 44.4976 26.2102 44.4314 26.2326C44.4237 26.2352 44.4168 26.2377 44.409 26.2403C44.3488 26.2618 44.2921 26.2893 44.2396 26.3229C44.2336 26.3272 44.2267 26.3298 44.2216 26.3341C44.1648 26.3728 44.1132 26.4166 44.0676 26.4674C44.0616 26.4734 44.0573 26.4811 44.0521 26.4871C44.0143 26.5319 43.9825 26.58 43.9541 26.6316C43.9498 26.6402 43.9429 26.6462 43.9386 26.6548L39.6068 35.3185L34.0159 32.1038C33.7562 31.955 33.4372 31.955 33.1783 32.1038L20.2069 39.5617C20.2069 39.5617 20.2069 39.5617 20.2061 39.5617C20.1889 39.572 20.176 39.5867 20.1596 39.5978C20.1149 39.6279 20.0693 39.6589 20.0315 39.6967C20.016 39.7122 20.0065 39.7311 19.9928 39.7475C19.9592 39.787 19.9248 39.8249 19.899 39.8696C19.887 39.8902 19.881 39.9143 19.8715 39.9367C19.8509 39.9805 19.8285 40.0235 19.8156 40.0708C19.8079 40.0992 19.8087 40.1302 19.8036 40.1603C19.7967 40.2033 19.7864 40.2454 19.7864 40.2893V55.2662C19.7864 55.5663 19.9463 55.8441 20.2069 55.9937L33.18 63.4818C33.3099 63.5566 33.4552 63.5944 33.6006 63.5944C33.7459 63.5944 33.8912 63.5566 34.0211 63.4818L46.9899 55.9937C47.2496 55.8432 47.4104 55.5663 47.4104 55.2662V53.6958L61.247 52.8659C61.5463 52.8479 61.8137 52.6716 61.9487 52.4032L68.6473 39.0062C68.6524 38.9958 68.6542 38.9855 68.6593 38.9761H68.6576ZM59.1916 27.0264L66.3855 37.8778L63.4821 38.0524L53.3771 38.6596L46.1944 27.7814L59.1916 27.0264ZM44.7917 28.7077L51.9727 39.5858L48.4321 46.6705L47.4096 48.7156V40.2893C47.4096 40.2437 47.3993 40.1998 47.3915 40.1551C47.3872 40.1276 47.3872 40.0984 47.3803 40.0708C47.3683 40.0261 47.3459 39.9848 47.327 39.9427C47.3158 39.9186 47.3098 39.8928 47.2969 39.8705C47.278 39.8378 47.2513 39.8111 47.229 39.7819C47.2075 39.7544 47.1894 39.7234 47.1645 39.6985C47.1413 39.6752 47.112 39.6589 47.0862 39.6391C47.0544 39.6142 47.0252 39.5858 46.9899 39.5652L41.0688 36.1613L44.7935 28.712L44.7917 28.7077ZM33.598 33.8014L39.5363 37.2156C39.5363 37.2156 39.5397 37.2182 39.5414 37.2191L44.17 39.8791L44.8863 40.291L33.5988 46.8072L22.3113 40.2901L33.5988 33.8006L33.598 33.8014ZM21.4668 41.7453L22.7474 42.4849L32.7578 48.2641L32.7595 59.1861V61.3008L21.4668 54.7829V41.7461V41.7453ZM45.7283 54.782L34.4399 61.2999V59.1947L34.4382 48.2632L44.4486 42.484L45.7291 41.7444V54.7811L45.7283 54.782ZM60.6605 51.219L47.6469 51.9999L49.8881 47.5167L53.4752 40.3392L63.9104 39.7114L66.4921 39.5566L60.6605 51.219Z" fill="#07180F"/>
</svg>
